# xmcd
# 
# Track frame offsets:
#     150
#     6340
#     15940
#     43725
#     51827
#     72192
#     84982
#     107777
#     128215
#     150765
#     162502
#     182155
#     188577
#     196140
#     210805
# 
# Disc length: 3114
# 
# Revision: 1
# Processed by: cddbd v1.5.2PL0 Copyright (c) Steve Scherf et al.
# Submitted via: fre:ac v1.0.17
# 
DISCID=b30c280f
DTITLE=Terry Allen - Juarez
DYEAR=1991
DGENRE=Alternative
TTITLE0=The Juarez Device
TTITLE1=Introduction
TTITLE2=Cortez Sail
TTITLE3=Border Palace
TTITLE4=Dogwood
TTITLE5=Writing On Rocks Across the USA
TTITLE6=Teh Radio ... And Real Life
TTITLE7=There Oughta Be A Law Against Sunny Southern California
TTITLE8=What of Alice
TTITLE9=Honeymoon in Cortez
TTITLE10=Four Corners
TTITLE11=Dialogue: The Run South
TTITLE12=Jabo - Street Walking Woman
TTITLE13=Cantina Carlotta
TTITLE14=La Despedida (The Parting)
EXTD=
EXTT0=
EXTT1=
EXTT2=
EXTT3=
EXTT4=
EXTT5=
EXTT6=
EXTT7=
EXTT8=
EXTT9=
EXTT10=
EXTT11=
EXTT12=
EXTT13=
EXTT14=
PLAYORDER=
